<?xml version="1.0" standalone="no"?>
<!DOCTYPE svg PUBLIC "-//W3C//DTD SVG 20010904//EN"
 "http://www.w3.org/TR/2001/REC-SVG-20010904/DTD/svg10.dtd">
<svg version="1.0" xmlns="http://www.w3.org/2000/svg"
 width="368.000000pt" height="368.000000pt" viewBox="0 0 368.000000 368.000000"
 preserveAspectRatio="xMidYMid meet">
<metadata>
Created by potrace 1.11, written by Peter Selinger 2001-2013
</metadata>
<g transform="translate(0.000000,368.000000) scale(0.100000,-0.100000)"
fill="#000000" stroke="none">
<path d="M0 2865 c0 -389 4 -705 9 -705 4 0 14 35 21 78 6 42 15 82 19 87 5 6
16 57 25 115 10 58 20 112 24 120 3 8 16 67 28 130 31 156 62 304 64 310 1 3
1 13 0 23 -1 10 3 24 8 30 5 7 15 52 22 100 8 48 17 90 21 93 5 2 6 11 2 19
-3 9 -1 21 5 28 5 6 15 50 22 97 7 47 15 90 19 95 3 6 4 20 3 32 -2 11 2 24 8
28 29 18 -14 25 -151 25 l-149 0 0 -705z"/>
<path d="M896 3533 c3 -21 13 -69 21 -108 8 -38 25 -122 37 -185 12 -63 25
-122 28 -130 4 -8 7 -22 7 -30 0 -8 10 -62 21 -120 11 -58 22 -116 25 -130 17
-89 42 -207 47 -220 4 -8 7 -22 7 -30 0 -27 32 -185 41 -205 5 -11 16 -67 25
-125 9 -58 19 -112 22 -120 4 -8 17 -69 29 -135 37 -195 72 -370 74 -370 2 0
36 -171 73 -365 12 -63 25 -119 28 -125 4 -5 12 -52 19 -103 7 -51 17 -95 21
-98 4 -2 6 -11 2 -19 -3 -9 -1 -21 5 -28 5 -6 15 -52 22 -100 8 -48 17 -90 21
-93 5 -2 5 -12 2 -20 -3 -8 -1 -25 5 -37 11 -24 43 -179 43 -212 0 -10 4 -24
8 -30 5 -5 14 -50 21 -98 8 -48 17 -90 21 -93 5 -2 6 -11 3 -19 -3 -8 0 -28 8
-45 l13 -30 150 2 150 3 3 1728 2 1727 -505 0 -506 0 7 -37z"/>
<path d="M2457 3123 c-4 -3 -7 -584 -7 -1291 l0 -1284 260 4 c190 2 262 6 272
15 6 7 19 13 28 13 30 0 96 56 126 106 l29 49 3 1070 c3 1185 5 1160 -57 1228
-37 41 -105 77 -146 77 -13 0 -27 5 -30 10 -7 11 -467 14 -478 3z"/>
<path d="M580 2740 c0 -32 -43 -319 -50 -335 -5 -11 -14 -60 -21 -110 -6 -49
-14 -94 -18 -100 -4 -5 -6 -21 -5 -35 1 -14 -2 -29 -6 -35 -4 -5 -13 -55 -20
-110 -7 -55 -16 -104 -20 -110 -4 -5 -6 -19 -4 -30 2 -11 1 -27 -3 -35 -7 -15
-42 -204 -47 -251 -1 -14 -5 -30 -8 -35 -3 -5 -11 -56 -18 -114 -7 -58 -16
-109 -20 -115 -4 -5 -10 -34 -14 -63 l-7 -52 263 2 c255 3 263 4 264 23 0 11
-3 25 -7 30 -3 6 -12 57 -19 115 -6 58 -17 115 -22 127 -6 12 -8 31 -5 42 3
12 2 23 -2 26 -4 2 -13 50 -21 107 -7 57 -17 108 -22 115 -5 7 -9 22 -7 35 1
13 -1 30 -4 38 -3 8 -11 56 -17 105 -6 50 -15 99 -20 110 -4 11 -16 83 -25
160 -10 77 -21 145 -25 150 -4 6 -15 71 -25 145 -10 74 -21 139 -26 144 -4 5
-5 22 -2 37 3 18 1 29 -6 29 -6 0 -11 -4 -11 -10z"/>
<path d="M242 748 c-6 -13 -18 -86 -28 -163 -9 -77 -20 -144 -24 -150 -4 -5
-15 -71 -25 -145 -10 -74 -22 -140 -27 -147 -5 -7 -7 -17 -3 -23 7 -12 895
-15 895 -2 -1 4 -7 50 -16 102 -8 52 -15 104 -14 115 0 11 -4 29 -10 40 -5 11
-16 72 -24 135 -9 63 -18 126 -20 140 -3 14 -9 45 -13 70 l-8 45 -336 3 -335
2 -12 -22z"/>
</g>
</svg>
